# xmcd
#
# Track frame offsets:
#	150
#	14834
#	26654
#	38957
#	50044
#	62081
#	73407
#	86685
#	98917
#	111287
#	124785
#	136245
#	147850
#	161680
#	175010
#	187964
#	201302
#	214466
#	225583
#	238211
#	250539
#	264024
#	276374
#	288028
#	299139
#	311702
#	322823
#	333815
#
# Disc length: 4633 seconds
#
# Revision: 1
# Processed by: cddbd v1.5.2PL0 Copyright (c) Steve Scherf et al.
# Submitted via: audiograbber 1.83.01
#
DISCID=af12171c
DTITLE=Various Artist - Big Box Of Blues - Cd5
DYEAR=1900
DGENRE=Blues
TTITLE0=Amos Milburn  - Bow-Wow 
TTITLE1=John Lee Hooker - Pouring Down Rain 
TTITLE2=Little Walter - Mellow Down Easy 
TTITLE3=Jimmy Witherspoon - I'm Just a Lady's Man 
TTITLE4=Cecil Gant - I Ain't Gonna Cry No More 
TTITLE5=Amos Milburn  - Jitterbug Fashion Parade 
TTITLE6=Guitar Slim - Story of My Life 
TTITLE7=Brownie McGhee - Let Me Tell You 'Bout My Baby 
TTITLE8=Wynonie Harris- She's Gone with the Wind 
TTITLE9=Amos Milburn  - That's My Chick 
TTITLE10=Bo Diddley - Diddy Wah Diddy 
TTITLE11=Cecil Gant - Another Day Another Dollar 
TTITLE12=Lowell Fulson - Loving You 
TTITLE13=Cecil Gant - Nashville Jumps 
TTITLE14=Brownie McGhee - I'm a Black Woman's Man 
TTITLE15=Memphis Slim - Memphis Slim USA 
TTITLE16=Muddy Waters - Forty Days and Forty Nights 
TTITLE17=Cecil Gant - Deal Yourself Another Hand 
TTITLE18=Amos Milburn  - Tears, Tears, Tears 
TTITLE19=Brownie McGhee - Double Trouble 
TTITLE20=Muddy Waters -Mannish Boy 
TTITLE21=John Brim - Be Careful What You Do 
TTITLE22=Cecil Gant - You Can't Do Me Right 
TTITLE23=Cecil Gant - Are You Ready 
TTITLE24=Brownie McGhee - Picking My Tomatoes 
TTITLE25=Cecil Gant - Wake Up, Cecil, Wake Up 
TTITLE26=Billy Gayles - I'm Tore Up 
TTITLE27=James Cotton - Cotton Crop Blues  
EXTD=
EXTT0=
EXTT1=
EXTT2=
EXTT3=
EXTT4=
EXTT5=
EXTT6=
EXTT7=
EXTT8=
EXTT9=
EXTT10=
EXTT11=
EXTT12=
EXTT13=
EXTT14=
EXTT15=
EXTT16=
EXTT17=
EXTT18=
EXTT19=
EXTT20=
EXTT21=
EXTT22=
EXTT23=
EXTT24=
EXTT25=
EXTT26=
EXTT27=
PLAYORDER=
